<?xml version="1.0" standalone="no"?>
<!DOCTYPE svg PUBLIC "-//W3C//DTD SVG 20010904//EN"
 "http://www.w3.org/TR/2001/REC-SVG-20010904/DTD/svg10.dtd">
<svg version="1.0" xmlns="http://www.w3.org/2000/svg"
 width="300.000000pt" height="300.000000pt" viewBox="0 0 300.000000 300.000000"
 preserveAspectRatio="xMidYMid meet">

<g transform="translate(0.000000,300.000000) scale(0.100000,-0.100000)"
fill="#000000" stroke="none">
<path d="M190 1907 l0 -213 63 -62 c34 -34 66 -62 70 -62 4 0 7 92 7 205 l0
205 233 0 c254 0 309 -8 400 -57 61 -34 143 -123 173 -188 72 -158 44 -335
-71 -463 -55 -61 -112 -97 -196 -123 -52 -16 -94 -19 -300 -19 l-239 0 0 138
0 138 -70 69 -70 69 0 -277 0 -277 315 0 c189 0 335 4 367 11 186 39 353 190
420 382 30 88 30 256 0 344 -66 189 -217 329 -407 378 -47 12 -125 15 -377 15
l-318 0 0 -213z"/>
<path d="M1338 1913 c9 -3 12 -40 12 -133 0 -93 -3 -130 -12 -133 -7 -3 16 -5
52 -5 36 0 59 2 53 5 -10 3 -13 40 -13 134 0 129 0 129 23 129 36 0 58 -32 64
-93 7 -70 -3 -123 -28 -148 -24 -24 -5 -26 47 -4 45 19 68 70 61 138 -5 57
-34 92 -86 107 -36 10 -197 13 -173 3z"/>
<path d="M470 1767 l0 -73 70 -69 70 -69 0 73 0 73 94 -4 c67 -3 101 -9 120
-21 63 -42 85 -132 46 -194 -32 -53 -63 -66 -162 -71 l-90 -5 -74 74 -74 73 0
-142 0 -142 159 0 c190 0 239 12 311 77 158 142 107 396 -94 472 -49 18 -78
21 -216 21 l-160 0 0 -73z"/>
<path d="M2146 1824 c-14 -7 -26 -9 -26 -3 0 5 -21 9 -47 8 -27 0 -42 -3 -35
-6 9 -3 12 -40 12 -133 0 -93 -3 -130 -12 -133 -7 -3 19 -5 57 -5 39 0 60 3
48 5 -21 4 -22 9 -22 123 -1 95 2 120 15 131 23 19 34 -4 34 -75 0 -41 -5 -65
-17 -78 -15 -17 -15 -18 14 -18 46 0 73 36 73 96 0 79 -40 117 -94 88z"/>
<path d="M2382 1829 c-12 -5 -22 -11 -22 -15 0 -3 7 -4 15 0 20 7 28 -27 23
-108 l-3 -66 40 0 40 0 -5 82 c-3 46 -8 88 -12 94 -10 16 -50 22 -76 13z"/>
<path d="M2599 1831 c0 -3 0 -42 1 -86 1 -62 5 -83 17 -92 20 -15 69 -17 78
-3 3 6 1 10 -4 10 -7 0 -11 25 -11 63 0 70 -16 102 -55 109 -14 3 -25 2 -26
-1z"/>
<path d="M2836 1824 c-14 -7 -26 -9 -26 -3 0 5 -21 9 -47 8 -27 0 -42 -3 -35
-6 9 -3 12 -40 12 -133 0 -93 -3 -130 -12 -133 -7 -3 19 -5 57 -5 39 0 60 3
48 5 -21 4 -22 9 -22 123 -1 95 2 120 15 131 23 19 34 -4 34 -75 0 -41 -5 -65
-17 -78 -15 -17 -15 -18 14 -18 46 0 73 36 73 96 0 79 -40 117 -94 88z"/>
<path d="M1653 1810 c-28 -25 -36 -54 -29 -95 13 -68 105 -100 157 -54 l24 20
-27 -16 c-34 -21 -66 -12 -74 20 -3 13 -4 51 -2 84 3 68 -9 79 -49 41z"/>
<path d="M1735 1790 c0 -39 1 -40 38 -40 39 0 44 8 26 43 -14 26 -28 37 -49
37 -12 0 -16 -10 -15 -40z"/>
<path d="M1857 1810 c-14 -11 -28 -33 -32 -49 -8 -36 16 -95 43 -110 33 -18
87 -13 113 10 l24 20 -27 -16 c-57 -35 -81 1 -75 113 3 58 -5 64 -46 32z"/>
<path d="M1938 1790 c4 -38 6 -40 38 -40 27 0 34 4 34 20 0 25 -34 60 -58 60
-14 0 -17 -7 -14 -40z"/>
<path d="M2268 1823 c8 -3 12 -31 12 -88 0 -57 -4 -85 -12 -88 -7 -3 10 -6 37
-6 l50 -1 -2 83 c-1 45 -2 88 -2 95 -1 8 -17 12 -48 11 -27 0 -42 -3 -35 -6z"/>
<path d="M2526 1814 c-21 -21 -20 -41 3 -53 29 -16 54 8 46 42 -8 30 -26 35
-49 11z"/>
<path d="M2550 1733 c-45 -8 -63 -49 -34 -77 17 -18 69 -22 79 -6 3 6 1 10 -6
10 -8 0 -10 13 -6 40 3 22 2 39 -1 39 -4 -1 -18 -4 -32 -6z"/>
<path d="M1732 1498 c-21 -21 -13 -39 23 -54 49 -20 48 -49 -2 -41 -25 4 -33
3 -26 -4 6 -6 26 -9 44 -7 29 2 34 7 34 28 0 19 -7 26 -32 34 -53 15 -35 53
18 39 15 -4 20 -3 15 5 -9 16 -59 15 -74 0z"/>
<path d="M1895 1490 c-20 -23 -23 -63 -5 -85 16 -20 84 -20 100 1 20 23 16 75
-5 90 -27 20 -69 17 -90 -6z m73 -6 c26 -18 28 -41 5 -66 -20 -22 -41 -23 -65
-1 -23 21 -23 38 2 63 24 24 29 24 58 4z"/>
<path d="M2080 1450 c0 -33 4 -60 10 -60 6 0 10 11 10 24 0 20 6 25 33 29 l32
4 -32 1 c-26 2 -33 6 -33 22 0 15 7 20 29 20 17 0 33 5 36 10 4 6 -12 10 -39
10 l-46 0 0 -60z"/>
<path d="M2225 1500 c3 -5 13 -10 21 -10 10 0 14 -13 14 -50 0 -27 5 -50 10
-50 6 0 10 23 10 50 0 43 3 50 20 50 11 0 20 5 20 10 0 6 -23 10 -51 10 -31 0
-48 -4 -44 -10z"/>
<path d="M2390 1450 l0 -60 48 2 c43 1 44 2 10 5 -30 3 -38 9 -38 24 0 14 7
19 30 19 17 0 30 5 30 10 0 6 -13 10 -30 10 -20 0 -30 5 -30 15 0 10 10 15 29
15 17 0 33 5 36 10 4 6 -12 10 -39 10 l-46 0 0 -60z"/>
<path d="M2567 1492 c-21 -23 -22 -66 -1 -86 17 -18 79 -22 89 -6 4 6 -6 7
-24 4 -39 -8 -61 9 -61 47 0 34 12 43 59 41 26 -1 32 1 21 8 -24 16 -66 11
-83 -8z"/>
<path d="M2730 1450 c0 -33 4 -60 10 -60 6 0 10 11 10 25 0 22 4 25 35 25 31
0 35 -3 35 -25 0 -14 5 -25 10 -25 6 0 10 27 10 60 0 33 -4 60 -10 60 -5 0
-10 -11 -10 -25 0 -22 -4 -25 -35 -25 -31 0 -35 3 -35 25 0 14 -4 25 -10 25
-6 0 -10 -27 -10 -60z"/>
</g>
</svg>
