<svg xmlns="http://www.w3.org/2000/svg" version="1.0" viewBox="76.53 149.92 261.42 76.55"><defs><clipPath id="a"><path d="M 76.5625 149.941406 L 153.0625 149.941406 L 153.0625 226.441406 L 76.5625 226.441406 Z M 76.5625 149.941406"/></clipPath><clipPath id="b"><path d="M 76.5625 159 L 106 159 L 106 217 L 76.5625 217 Z M 76.5625 159"/></clipPath></defs><g clip-path="url(#a)"><path fill="#FFF" d="M 153.0625 188.191406 C 153.0625 167.070312 135.933594 149.941406 114.8125 149.941406 L 76.5625 149.941406 L 76.5625 159.503906 L 114.8125 159.503906 C 130.65625 159.503906 143.5 172.351562 143.5 188.191406 C 143.5 204.035156 130.65625 216.878906 114.8125 216.878906 L 76.5625 216.878906 L 76.5625 226.441406 L 114.8125 226.441406 C 135.933594 226.441406 153.0625 209.3125 153.0625 188.191406 Z M 114.8125 207.316406 L 95.6875 207.316406 L 95.6875 197.753906 L 114.8125 197.753906 C 120.09375 197.753906 124.375 193.472656 124.375 188.191406 C 124.375 182.910156 120.09375 178.628906 114.8125 178.628906 L 95.6875 178.628906 L 95.6875 169.066406 L 114.8125 169.066406 C 125.375 169.066406 133.9375 177.628906 133.9375 188.191406 C 133.9375 198.753906 125.375 207.316406 114.8125 207.316406"/></g><g clip-path="url(#b)"><path fill="#FFF" d="M 76.5625 188.191406 L 76.5625 216.878906 L 86.125 216.878906 L 86.125 197.753906 Z M 76.5625 159.503906 L 76.5625 178.628906 L 86.125 188.191406 L 86.125 159.503906 Z M 105.25 197.753906 L 95.6875 188.191406 L 95.6875 197.753906 Z M 95.6875 178.628906 L 105.25 178.628906 L 105.25 188.191406 L 95.6875 178.628906"/></g><g fill="#FFF"><g><g><path d="M 30.40625 -15.40625 C 30.40625 -9.5625 28.757812 -5.488281 25.46875 -3.1875 C 22.425781 -1.0625 18.25 0 12.9375 0 L 0.890625 0 L 0.890625 -0.8125 L 3.703125 -0.8125 L 3.703125 -29 L 0.890625 -29 L 0.890625 -29.8125 L 14.046875 -29.8125 C 19.492188 -29.8125 23.582031 -28.695312 26.3125 -26.46875 C 29.039062 -24.238281 30.40625 -20.550781 30.40625 -15.40625 Z M 12 -0.8125 L 13.625 -0.8125 C 16.488281 -0.8125 18.535156 -1.820312 19.765625 -3.84375 C 21.003906 -5.875 21.625 -9.273438 21.625 -14.046875 L 21.625 -16.515625 C 21.625 -22.898438 20.40625 -26.75 17.96875 -28.0625 C 16.800781 -28.6875 15.15625 -29 13.03125 -29 L 12 -29 Z M 12 -0.8125" transform="translate(163.024 194.971)"/></g></g></g><g fill="#FFF"><g><g><path d="M 11.625 0.421875 C 7.957031 0.421875 5.207031 -0.519531 3.375 -2.40625 C 1.550781 -4.289062 0.640625 -6.914062 0.640625 -10.28125 C 0.640625 -13.644531 1.664062 -16.21875 3.71875 -18 C 5.78125 -19.789062 8.398438 -20.6875 11.578125 -20.6875 C 18.023438 -20.6875 21.117188 -17.453125 20.859375 -10.984375 L 8.859375 -10.984375 L 8.859375 -9.328125 C 8.859375 -6.546875 9.210938 -4.441406 9.921875 -3.015625 C 10.628906 -1.597656 11.863281 -0.890625 13.625 -0.890625 C 16.914062 -0.890625 19.070312 -2.648438 20.09375 -6.171875 L 20.859375 -6.046875 C 20.316406 -4.003906 19.34375 -2.414062 17.9375 -1.28125 C 16.539062 -0.144531 14.4375 0.421875 11.625 0.421875 Z M 8.90625 -11.84375 L 13.28125 -11.84375 L 13.28125 -13.921875 C 13.28125 -16.222656 13.144531 -17.789062 12.875 -18.625 C 12.601562 -19.46875 12.0625 -19.890625 11.25 -19.890625 C 10.445312 -19.890625 9.851562 -19.441406 9.46875 -18.546875 C 9.09375 -17.648438 8.90625 -16.109375 8.90625 -13.921875 Z M 8.90625 -11.84375" transform="translate(195.168 194.971)"/></g></g></g><g fill="#FFF"><g><g><path d="M 11.625 0.421875 C 7.957031 0.421875 5.207031 -0.519531 3.375 -2.40625 C 1.550781 -4.289062 0.640625 -6.914062 0.640625 -10.28125 C 0.640625 -13.644531 1.664062 -16.21875 3.71875 -18 C 5.78125 -19.789062 8.398438 -20.6875 11.578125 -20.6875 C 18.023438 -20.6875 21.117188 -17.453125 20.859375 -10.984375 L 8.859375 -10.984375 L 8.859375 -9.328125 C 8.859375 -6.546875 9.210938 -4.441406 9.921875 -3.015625 C 10.628906 -1.597656 11.863281 -0.890625 13.625 -0.890625 C 16.914062 -0.890625 19.070312 -2.648438 20.09375 -6.171875 L 20.859375 -6.046875 C 20.316406 -4.003906 19.34375 -2.414062 17.9375 -1.28125 C 16.539062 -0.144531 14.4375 0.421875 11.625 0.421875 Z M 8.90625 -11.84375 L 13.28125 -11.84375 L 13.28125 -13.921875 C 13.28125 -16.222656 13.144531 -17.789062 12.875 -18.625 C 12.601562 -19.46875 12.0625 -19.890625 11.25 -19.890625 C 10.445312 -19.890625 9.851562 -19.441406 9.46875 -18.546875 C 9.09375 -17.648438 8.90625 -16.109375 8.90625 -13.921875 Z M 8.90625 -11.84375" transform="translate(217.136 194.971)"/></g></g></g><g fill="#FFF"><g><g><path d="M 15.96875 -11.453125 C 15.96875 -14.378906 15.820312 -16.34375 15.53125 -17.34375 C 15.25 -18.351562 14.695312 -18.859375 13.875 -18.859375 C 13.050781 -18.859375 12.3125 -18.328125 11.65625 -17.265625 C 11.007812 -16.203125 10.6875 -14.773438 10.6875 -12.984375 L 10.6875 -5.1875 C 10.6875 -3.96875 10.925781 -2.929688 11.40625 -2.078125 C 11.894531 -1.234375 12.601562 -0.8125 13.53125 -0.8125 C 14.46875 -0.8125 15.109375 -1.4375 15.453125 -2.6875 C 15.796875 -3.9375 15.96875 -6.117188 15.96875 -9.234375 Z M 10.609375 -20.265625 L 10.609375 -16.90625 C 11.710938 -19.425781 13.671875 -20.6875 16.484375 -20.6875 C 18.921875 -20.6875 20.8125 -19.804688 22.15625 -18.046875 C 23.507812 -16.285156 24.1875 -13.617188 24.1875 -10.046875 C 24.1875 -6.472656 23.453125 -3.832031 21.984375 -2.125 C 20.523438 -0.425781 18.332031 0.421875 15.40625 0.421875 C 14.050781 0.421875 13.03125 0.253906 12.34375 -0.078125 C 11.664062 -0.421875 11.113281 -0.945312 10.6875 -1.65625 L 10.6875 9.375 L 16.1875 9.375 L 16.1875 10.140625 L 0.421875 10.140625 L 0.421875 9.375 L 2.765625 9.375 L 2.765625 -19.5 L 0.515625 -19.5 L 0.515625 -20.265625 Z M 10.609375 -20.265625" transform="translate(239.104 194.971)"/></g></g></g><g fill="#FFF"><g><g><path d="M 0.515625 -20.265625 L 10.765625 -20.265625 L 10.765625 -16.34375 C 11.222656 -17.65625 11.921875 -18.707031 12.859375 -19.5 C 13.796875 -20.289062 15.210938 -20.6875 17.109375 -20.6875 C 21.515625 -20.6875 23.71875 -18.316406 23.71875 -13.578125 L 23.71875 -0.765625 L 26.09375 -0.765625 L 26.09375 0 L 14.046875 0 L 14.046875 -0.765625 L 15.796875 -0.765625 L 15.796875 -14.609375 C 15.796875 -16.304688 15.679688 -17.40625 15.453125 -17.90625 C 15.222656 -18.40625 14.8125 -18.65625 14.21875 -18.65625 C 13.3125 -18.65625 12.507812 -18.054688 11.8125 -16.859375 C 11.113281 -15.671875 10.765625 -14.222656 10.765625 -12.515625 L 10.765625 -0.765625 L 12.609375 -0.765625 L 12.609375 0 L 0.515625 0 L 0.515625 -0.765625 L 2.859375 -0.765625 L 2.859375 -19.5 L 0.515625 -19.5 Z M 0.515625 -20.265625" transform="translate(264.138 194.971)"/></g></g></g><g fill="#FFF"><g><g><path d="M 10.640625 -10 L 11.875 -10 L 11.875 -13.28125 C 11.875 -15.976562 11.722656 -17.785156 11.421875 -18.703125 C 11.128906 -19.628906 10.554688 -20.09375 9.703125 -20.09375 C 9.191406 -20.09375 8.726562 -19.957031 8.3125 -19.6875 C 7.90625 -19.414062 7.703125 -19.046875 7.703125 -18.578125 C 7.703125 -18.117188 7.789062 -17.644531 7.96875 -17.15625 L 9.03125 -17.15625 C 9.257812 -16.5625 9.375 -15.84375 9.375 -15 C 9.375 -14.164062 9.015625 -13.441406 8.296875 -12.828125 C 7.585938 -12.222656 6.695312 -11.921875 5.625 -11.921875 C 3.175781 -11.921875 1.953125 -13.097656 1.953125 -15.453125 C 1.953125 -18.941406 4.921875 -20.6875 10.859375 -20.6875 C 14.234375 -20.6875 16.566406 -20.113281 17.859375 -18.96875 C 19.148438 -17.820312 19.796875 -15.710938 19.796875 -12.640625 L 19.796875 -4 C 19.796875 -2.519531 20.207031 -1.78125 21.03125 -1.78125 C 22 -1.78125 22.566406 -3.242188 22.734375 -6.171875 L 23.375 -6.125 C 23.257812 -3.632812 22.789062 -1.921875 21.96875 -0.984375 C 21.144531 -0.046875 19.796875 0.421875 17.921875 0.421875 C 14.515625 0.421875 12.554688 -0.625 12.046875 -2.71875 C 11.679688 -1.644531 11.128906 -0.851562 10.390625 -0.34375 C 9.648438 0.164062 8.570312 0.421875 7.15625 0.421875 C 2.957031 0.421875 0.859375 -1.289062 0.859375 -4.71875 C 0.859375 -6.738281 1.65625 -8.125 3.25 -8.875 C 4.851562 -9.625 7.316406 -10 10.640625 -10 Z M 8.9375 -4.765625 C 8.9375 -3.296875 9.015625 -2.347656 9.171875 -1.921875 C 9.328125 -1.492188 9.625 -1.28125 10.0625 -1.28125 C 10.507812 -1.28125 10.921875 -1.640625 11.296875 -2.359375 C 11.679688 -3.085938 11.875 -4.085938 11.875 -5.359375 L 11.875 -9.328125 L 11.578125 -9.328125 C 9.816406 -9.328125 8.9375 -8.035156 8.9375 -5.453125 Z M 8.9375 -4.765625" transform="translate(290.363 194.971)"/></g></g></g><g fill="#FFF"><g><g><path d="M 15.96875 -11.453125 C 15.96875 -14.378906 15.820312 -16.34375 15.53125 -17.34375 C 15.25 -18.351562 14.695312 -18.859375 13.875 -18.859375 C 13.050781 -18.859375 12.3125 -18.328125 11.65625 -17.265625 C 11.007812 -16.203125 10.6875 -14.773438 10.6875 -12.984375 L 10.6875 -5.1875 C 10.6875 -3.96875 10.925781 -2.929688 11.40625 -2.078125 C 11.894531 -1.234375 12.601562 -0.8125 13.53125 -0.8125 C 14.46875 -0.8125 15.109375 -1.4375 15.453125 -2.6875 C 15.796875 -3.9375 15.96875 -6.117188 15.96875 -9.234375 Z M 10.609375 -20.265625 L 10.609375 -16.90625 C 11.710938 -19.425781 13.671875 -20.6875 16.484375 -20.6875 C 18.921875 -20.6875 20.8125 -19.804688 22.15625 -18.046875 C 23.507812 -16.285156 24.1875 -13.617188 24.1875 -10.046875 C 24.1875 -6.472656 23.453125 -3.832031 21.984375 -2.125 C 20.523438 -0.425781 18.332031 0.421875 15.40625 0.421875 C 14.050781 0.421875 13.03125 0.253906 12.34375 -0.078125 C 11.664062 -0.421875 11.113281 -0.945312 10.6875 -1.65625 L 10.6875 9.375 L 16.1875 9.375 L 16.1875 10.140625 L 0.421875 10.140625 L 0.421875 9.375 L 2.765625 9.375 L 2.765625 -19.5 L 0.515625 -19.5 L 0.515625 -20.265625 Z M 10.609375 -20.265625" transform="translate(313.737 194.971)"/></g></g></g><g fill="#FFF"><g><g><path d="M 5.15625 0.140625 C 4.28125 0.140625 3.429688 0.00390625 2.609375 -0.265625 C 1.796875 -0.546875 1.15625 -0.90625 0.6875 -1.34375 L 1.296875 -2.640625 C 1.742188 -2.234375 2.316406 -1.90625 3.015625 -1.65625 C 3.710938 -1.40625 4.425781 -1.28125 5.15625 -1.28125 C 6.125 -1.28125 6.847656 -1.441406 7.328125 -1.765625 C 7.804688 -2.097656 8.046875 -2.539062 8.046875 -3.09375 C 8.046875 -3.488281 7.914062 -3.8125 7.65625 -4.0625 C 7.394531 -4.3125 7.070312 -4.503906 6.6875 -4.640625 C 6.300781 -4.773438 5.757812 -4.925781 5.0625 -5.09375 C 4.175781 -5.300781 3.460938 -5.507812 2.921875 -5.71875 C 2.390625 -5.9375 1.929688 -6.265625 1.546875 -6.703125 C 1.160156 -7.140625 0.96875 -7.734375 0.96875 -8.484375 C 0.96875 -9.109375 1.128906 -9.671875 1.453125 -10.171875 C 1.785156 -10.671875 2.285156 -11.070312 2.953125 -11.375 C 3.617188 -11.675781 4.445312 -11.828125 5.4375 -11.828125 C 6.132812 -11.828125 6.816406 -11.738281 7.484375 -11.5625 C 8.148438 -11.382812 8.722656 -11.128906 9.203125 -10.796875 L 8.65625 -9.453125 C 8.164062 -9.765625 7.640625 -10 7.078125 -10.15625 C 6.523438 -10.320312 5.976562 -10.40625 5.4375 -10.40625 C 4.5 -10.40625 3.789062 -10.234375 3.3125 -9.890625 C 2.84375 -9.546875 2.609375 -9.097656 2.609375 -8.546875 C 2.609375 -8.148438 2.738281 -7.828125 3 -7.578125 C 3.269531 -7.328125 3.601562 -7.128906 4 -6.984375 C 4.394531 -6.847656 4.929688 -6.703125 5.609375 -6.546875 C 6.492188 -6.335938 7.203125 -6.125 7.734375 -5.90625 C 8.265625 -5.695312 8.722656 -5.375 9.109375 -4.9375 C 9.492188 -4.507812 9.6875 -3.925781 9.6875 -3.1875 C 9.6875 -2.570312 9.519531 -2.007812 9.1875 -1.5 C 8.851562 -1 8.34375 -0.597656 7.65625 -0.296875 C 6.976562 -0.00390625 6.144531 0.140625 5.15625 0.140625 Z M 5.15625 0.140625" transform="translate(225.54 222.03)"/></g></g></g><g fill="#FFF"><g><g><path d="M 7.03125 0.140625 C 5.851562 0.140625 4.789062 -0.117188 3.84375 -0.640625 C 2.894531 -1.160156 2.148438 -1.875 1.609375 -2.78125 C 1.066406 -3.695312 0.796875 -4.71875 0.796875 -5.84375 C 0.796875 -6.96875 1.066406 -7.984375 1.609375 -8.890625 C 2.148438 -9.804688 2.894531 -10.523438 3.84375 -11.046875 C 4.789062 -11.566406 5.851562 -11.828125 7.03125 -11.828125 C 8.195312 -11.828125 9.253906 -11.566406 10.203125 -11.046875 C 11.148438 -10.523438 11.890625 -9.8125 12.421875 -8.90625 C 12.960938 -8 13.234375 -6.976562 13.234375 -5.84375 C 13.234375 -4.707031 12.960938 -3.6875 12.421875 -2.78125 C 11.890625 -1.875 11.148438 -1.160156 10.203125 -0.640625 C 9.253906 -0.117188 8.195312 0.140625 7.03125 0.140625 Z M 7.03125 -1.359375 C 7.882812 -1.359375 8.65625 -1.550781 9.34375 -1.9375 C 10.03125 -2.320312 10.570312 -2.859375 10.96875 -3.546875 C 11.363281 -4.234375 11.5625 -5 11.5625 -5.84375 C 11.5625 -6.6875 11.363281 -7.453125 10.96875 -8.140625 C 10.570312 -8.828125 10.03125 -9.363281 9.34375 -9.75 C 8.65625 -10.144531 7.882812 -10.34375 7.03125 -10.34375 C 6.175781 -10.34375 5.398438 -10.144531 4.703125 -9.75 C 4.003906 -9.363281 3.457031 -8.828125 3.0625 -8.140625 C 2.664062 -7.453125 2.46875 -6.6875 2.46875 -5.84375 C 2.46875 -5 2.664062 -4.234375 3.0625 -3.546875 C 3.457031 -2.859375 4.003906 -2.320312 4.703125 -1.9375 C 5.398438 -1.550781 6.175781 -1.359375 7.03125 -1.359375 Z M 7.03125 -1.359375" transform="translate(240.304 222.03)"/></g></g></g><g fill="#FFF"><g><g><path d="M 3.421875 -10.234375 L 3.421875 -6.15625 L 9.28125 -6.15625 L 9.28125 -4.734375 L 3.421875 -4.734375 L 3.421875 0 L 1.75 0 L 1.75 -11.6875 L 10 -11.6875 L 10 -10.234375 Z M 3.421875 -10.234375" transform="translate(258.725 222.03)"/></g></g></g><g fill="#FFF"><g><g><path d="M 4.078125 -10.234375 L 0.0625 -10.234375 L 0.0625 -11.6875 L 9.734375 -11.6875 L 9.734375 -10.234375 L 5.734375 -10.234375 L 5.734375 0 L 4.078125 0 Z M 4.078125 -10.234375" transform="translate(273.724 222.03)"/></g></g></g><g fill="#FFF"><g><g><path d="M 10.234375 -1.453125 L 10.234375 0 L 1.75 0 L 1.75 -11.6875 L 10 -11.6875 L 10 -10.234375 L 3.421875 -10.234375 L 3.421875 -6.640625 L 9.28125 -6.640625 L 9.28125 -5.234375 L 3.421875 -5.234375 L 3.421875 -1.453125 Z M 10.234375 -1.453125" transform="translate(287.92 222.03)"/></g></g></g><g fill="#FFF"><g><g><path d="M 6.984375 0.140625 C 5.816406 0.140625 4.757812 -0.117188 3.8125 -0.640625 C 2.875 -1.160156 2.132812 -1.875 1.59375 -2.78125 C 1.0625 -3.6875 0.796875 -4.707031 0.796875 -5.84375 C 0.796875 -6.976562 1.0625 -8 1.59375 -8.90625 C 2.132812 -9.8125 2.878906 -10.523438 3.828125 -11.046875 C 4.773438 -11.566406 5.832031 -11.828125 7 -11.828125 C 7.914062 -11.828125 8.75 -11.671875 9.5 -11.359375 C 10.257812 -11.054688 10.90625 -10.601562 11.4375 -10 L 10.359375 -8.953125 C 9.472656 -9.878906 8.375 -10.34375 7.0625 -10.34375 C 6.195312 -10.34375 5.410156 -10.144531 4.703125 -9.75 C 4.003906 -9.363281 3.457031 -8.828125 3.0625 -8.140625 C 2.664062 -7.453125 2.46875 -6.6875 2.46875 -5.84375 C 2.46875 -5 2.664062 -4.234375 3.0625 -3.546875 C 3.457031 -2.859375 4.003906 -2.320312 4.703125 -1.9375 C 5.410156 -1.550781 6.195312 -1.359375 7.0625 -1.359375 C 8.363281 -1.359375 9.460938 -1.820312 10.359375 -2.75 L 11.4375 -1.703125 C 10.90625 -1.097656 10.257812 -0.640625 9.5 -0.328125 C 8.738281 -0.015625 7.898438 0.140625 6.984375 0.140625 Z M 6.984375 0.140625" transform="translate(303.503 222.03)"/></g></g></g><g fill="#FFF"><g><g><path d="M 11.8125 -11.6875 L 11.8125 0 L 10.140625 0 L 10.140625 -5.21875 L 3.421875 -5.21875 L 3.421875 0 L 1.75 0 L 1.75 -11.6875 L 3.421875 -11.6875 L 3.421875 -6.671875 L 10.140625 -6.671875 L 10.140625 -11.6875 Z M 11.8125 -11.6875" transform="translate(319.97 222.03)"/></g></g></g></svg>